<svg width="1080" height="1840" viewBox="0 0 1080 1840" fill="none" xmlns="http://www.w3.org/2000/svg">
<path d="M1080 496L1080 1840L-5.87481e-05 1840L0 496L1080 496Z" fill="url(#paint0_radial_129_2056)" fill-opacity="0.3"/>
<path d="M0 190L1080 190L1080 1160L0 1160L0 190Z" fill="url(#paint1_radial_129_2056)" fill-opacity="0.5"/>
<g opacity="0.5">
<path d="M412 1072H411L411 1720H412L412 1072Z" fill="url(#paint2_radial_129_2056)"/>
<path d="M812 1072H811L811 1720H812L812 1072Z" fill="url(#paint3_radial_129_2056)"/>
<path d="M962 1072H961L961 1720H962L962 1072Z" fill="url(#paint4_radial_129_2056)"/>
<path d="M1037 1072H1036V1720H1037V1072Z" fill="url(#paint5_radial_129_2056)"/>
<path d="M312 1072H311L311 1720H312L312 1072Z" fill="url(#paint6_radial_129_2056)"/>
<path d="M712 1072H711L711 1720H712L712 1072Z" fill="url(#paint7_radial_129_2056)"/>
<path d="M862 1072H861L861 1720H862L862 1072Z" fill="url(#paint8_radial_129_2056)"/>
<path d="M362 1072H361L361 1720H362L362 1072Z" fill="url(#paint9_radial_129_2056)"/>
<path d="M762 1072H761L761 1720H762L762 1072Z" fill="url(#paint10_radial_129_2056)"/>
<path d="M912 1072H911L911 1720H912L912 1072Z" fill="url(#paint11_radial_129_2056)"/>
<path d="M987 1072H986L986 1720H987L987 1072Z" fill="url(#paint12_radial_129_2056)"/>
<path d="M262 1072H261L261 1720H262L262 1072Z" fill="url(#paint13_radial_129_2056)"/>
<path d="M662 1072H661L661 1720H662L662 1072Z" fill="url(#paint14_radial_129_2056)"/>
<path d="M387 1072H386L386 1720H387L387 1072Z" fill="url(#paint15_radial_129_2056)"/>
<path d="M787 1072H786L786 1720H787L787 1072Z" fill="url(#paint16_radial_129_2056)"/>
<path d="M937 1072H936L936 1720H937L937 1072Z" fill="url(#paint17_radial_129_2056)"/>
<path d="M1012 1072H1011L1011 1720H1012L1012 1072Z" fill="url(#paint18_radial_129_2056)"/>
<path d="M287 1072H286L286 1720H287L287 1072Z" fill="url(#paint19_radial_129_2056)"/>
<path d="M687 1072H686L686 1720H687L687 1072Z" fill="url(#paint20_radial_129_2056)"/>
<path d="M837 1072H836L836 1720H837L837 1072Z" fill="url(#paint21_radial_129_2056)"/>
<path d="M337 1072H336L336 1720H337L337 1072Z" fill="url(#paint22_radial_129_2056)"/>
<path d="M737 1072H736L736 1720H737L737 1072Z" fill="url(#paint23_radial_129_2056)"/>
<path d="M887 1072H886L886 1720H887L887 1072Z" fill="url(#paint24_radial_129_2056)"/>
<path d="M237 1072H236L236 1720H237L237 1072Z" fill="url(#paint25_radial_129_2056)"/>
<path d="M637 1072H636L636 1720H637L637 1072Z" fill="url(#paint26_radial_129_2056)"/>
<path d="M212 1072H211L211 1720H212L212 1072Z" fill="url(#paint27_radial_129_2056)"/>
<path d="M612 1072H611L611 1720H612L612 1072Z" fill="url(#paint28_radial_129_2056)"/>
<path d="M112 1072H111L111 1720H112L112 1072Z" fill="url(#paint29_radial_129_2056)"/>
<path d="M512 1072H511L511 1720H512L512 1072Z" fill="url(#paint30_radial_129_2056)"/>
<path d="M162 1072H161L161 1720H162L162 1072Z" fill="url(#paint31_radial_129_2056)"/>
<path d="M562 1072H561L561 1720H562L562 1072Z" fill="url(#paint32_radial_129_2056)"/>
<path d="M62 1072H61L61 1720H62L62 1072Z" fill="url(#paint33_radial_129_2056)"/>
<path d="M462 1072H461L461 1720H462L462 1072Z" fill="url(#paint34_radial_129_2056)"/>
<path d="M187 1072H186L186 1720H187L187 1072Z" fill="url(#paint35_radial_129_2056)"/>
<path d="M587 1072H586L586 1720H587L587 1072Z" fill="url(#paint36_radial_129_2056)"/>
<path d="M87 1072H86L86 1720H87L87 1072Z" fill="url(#paint37_radial_129_2056)"/>
<path d="M487 1072H486L486 1720H487L487 1072Z" fill="url(#paint38_radial_129_2056)"/>
<path d="M137 1072H136L136 1720H137L137 1072Z" fill="url(#paint39_radial_129_2056)"/>
<path d="M537 1072H536L536 1720H537L537 1072Z" fill="url(#paint40_radial_129_2056)"/>
<path d="M37 1072H36L36 1720H37L37 1072Z" fill="url(#paint41_radial_129_2056)"/>
<path d="M437 1072H436L436 1720H437L437 1072Z" fill="url(#paint42_radial_129_2056)"/>
<path d="M1052 1095.04L20 1095.04V1096.04L1052 1096.04V1095.04Z" fill="url(#paint43_radial_129_2056)"/>
<path d="M1052 1295.34L20 1295.34V1296.35L1052 1296.35V1295.34Z" fill="url(#paint44_radial_129_2056)"/>
<path d="M1052 1495.65L20 1495.65V1496.66L1052 1496.66V1495.65Z" fill="url(#paint45_radial_129_2056)"/>
<path d="M1052 1195.19L20 1195.19V1196.19L1052 1196.19V1195.19Z" fill="url(#paint46_radial_129_2056)"/>
<path d="M1052 1395.5L20 1395.5V1396.5L1052 1396.5V1395.5Z" fill="url(#paint47_radial_129_2056)"/>
<path d="M1052 1595.81H20V1596.81H1052V1595.81Z" fill="url(#paint48_radial_129_2056)"/>
<path d="M1052 1145.11L20 1145.11V1146.11L1052 1146.11V1145.11Z" fill="url(#paint49_radial_129_2056)"/>
<path d="M1052 1345.42L20 1345.42V1346.42L1052 1346.42V1345.42Z" fill="url(#paint50_radial_129_2056)"/>
<path d="M1052 1545.73L20 1545.73V1546.73L1052 1546.73V1545.73Z" fill="url(#paint51_radial_129_2056)"/>
<path d="M1052 1245.27L20 1245.27V1246.27L1052 1246.27V1245.27Z" fill="url(#paint52_radial_129_2056)"/>
<path d="M1052 1445.58L20 1445.58V1446.58L1052 1446.58V1445.58Z" fill="url(#paint53_radial_129_2056)"/>
<path d="M1052 1645.89H20V1646.89H1052V1645.89Z" fill="url(#paint54_radial_129_2056)"/>
<path d="M1052 1120.07L20 1120.07V1121.08L1052 1121.08V1120.07Z" fill="url(#paint55_radial_129_2056)"/>
<path d="M1052 1320.38L20 1320.38V1321.38L1052 1321.38V1320.38Z" fill="url(#paint56_radial_129_2056)"/>
<path d="M1052 1520.69L20 1520.69V1521.69L1052 1521.69V1520.69Z" fill="url(#paint57_radial_129_2056)"/>
<path d="M1052 1220.23L20 1220.23V1221.23L1052 1221.23V1220.23Z" fill="url(#paint58_radial_129_2056)"/>
<path d="M1052 1420.54L20 1420.54V1421.54L1052 1421.54V1420.54Z" fill="url(#paint59_radial_129_2056)"/>
<path d="M1052 1620.85H20V1621.85H1052V1620.85Z" fill="url(#paint60_radial_129_2056)"/>
<path d="M1052 1170.15L20 1170.15V1171.15L1052 1171.15V1170.15Z" fill="url(#paint61_radial_129_2056)"/>
<path d="M1052 1370.46L20 1370.46V1371.46L1052 1371.46V1370.46Z" fill="url(#paint62_radial_129_2056)"/>
<path d="M1052 1570.77L20 1570.77V1571.77L1052 1571.77V1570.77Z" fill="url(#paint63_radial_129_2056)"/>
<path d="M1052 1270.31L20 1270.31V1271.31L1052 1271.31V1270.31Z" fill="url(#paint64_radial_129_2056)"/>
<path d="M1052 1470.62L20 1470.62V1471.62L1052 1471.62V1470.62Z" fill="url(#paint65_radial_129_2056)"/>
<path d="M1052 1670.92H20V1671.93H1052V1670.92Z" fill="url(#paint66_radial_129_2056)"/>
<path d="M1052 1695.96H20V1696.96H1052V1695.96Z" fill="url(#paint67_radial_129_2056)"/>
</g>
<g opacity="0.5">
<path d="M416 314H415L415 962H416L416 314Z" fill="url(#paint68_radial_129_2056)"/>
<path d="M816 314H815L815 962H816L816 314Z" fill="url(#paint69_radial_129_2056)"/>
<path d="M966 314H965L965 962H966L966 314Z" fill="url(#paint70_radial_129_2056)"/>
<path d="M1041 314H1040V962H1041V314Z" fill="url(#paint71_radial_129_2056)"/>
<path d="M316 314H315L315 962H316L316 314Z" fill="url(#paint72_radial_129_2056)"/>
<path d="M716 314H715L715 962H716L716 314Z" fill="url(#paint73_radial_129_2056)"/>
<path d="M866 314H865L865 962H866L866 314Z" fill="url(#paint74_radial_129_2056)"/>
<path d="M366 314H365L365 962H366L366 314Z" fill="url(#paint75_radial_129_2056)"/>
<path d="M766 314H765L765 962H766L766 314Z" fill="url(#paint76_radial_129_2056)"/>
<path d="M916 314H915L915 962H916L916 314Z" fill="url(#paint77_radial_129_2056)"/>
<path d="M991 314H990L990 962H991L991 314Z" fill="url(#paint78_radial_129_2056)"/>
<path d="M266 314H265L265 962H266L266 314Z" fill="url(#paint79_radial_129_2056)"/>
<path d="M666 314H665L665 962H666L666 314Z" fill="url(#paint80_radial_129_2056)"/>
<path d="M391 314H390L390 962H391L391 314Z" fill="url(#paint81_radial_129_2056)"/>
<path d="M791 314H790L790 962H791L791 314Z" fill="url(#paint82_radial_129_2056)"/>
<path d="M941 314H940L940 962H941L941 314Z" fill="url(#paint83_radial_129_2056)"/>
<path d="M1016 314H1015L1015 962H1016L1016 314Z" fill="url(#paint84_radial_129_2056)"/>
<path d="M291 314H290L290 962H291L291 314Z" fill="url(#paint85_radial_129_2056)"/>
<path d="M691 314H690L690 962H691L691 314Z" fill="url(#paint86_radial_129_2056)"/>
<path d="M841 314H840L840 962H841L841 314Z" fill="url(#paint87_radial_129_2056)"/>
<path d="M341 314H340L340 962H341L341 314Z" fill="url(#paint88_radial_129_2056)"/>
<path d="M741 314H740L740 962H741L741 314Z" fill="url(#paint89_radial_129_2056)"/>
<path d="M891 314H890L890 962H891L891 314Z" fill="url(#paint90_radial_129_2056)"/>
<path d="M241 314H240L240 962H241L241 314Z" fill="url(#paint91_radial_129_2056)"/>
<path d="M641 314H640L640 962H641L641 314Z" fill="url(#paint92_radial_129_2056)"/>
<path d="M216 314H215L215 962H216L216 314Z" fill="url(#paint93_radial_129_2056)"/>
<path d="M616 314H615L615 962H616L616 314Z" fill="url(#paint94_radial_129_2056)"/>
<path d="M116 314H115L115 962H116L116 314Z" fill="url(#paint95_radial_129_2056)"/>
<path d="M516 314H515L515 962H516L516 314Z" fill="url(#paint96_radial_129_2056)"/>
<path d="M166 314H165L165 962H166L166 314Z" fill="url(#paint97_radial_129_2056)"/>
<path d="M566 314H565L565 962H566L566 314Z" fill="url(#paint98_radial_129_2056)"/>
<path d="M66 314H65L65 962H66L66 314Z" fill="url(#paint99_radial_129_2056)"/>
<path d="M466 314H465L465 962H466L466 314Z" fill="url(#paint100_radial_129_2056)"/>
<path d="M191 314H190L190 962H191L191 314Z" fill="url(#paint101_radial_129_2056)"/>
<path d="M591 314H590L590 962H591L591 314Z" fill="url(#paint102_radial_129_2056)"/>
<path d="M91 314H90L90 962H91L91 314Z" fill="url(#paint103_radial_129_2056)"/>
<path d="M491 314H490L490 962H491L491 314Z" fill="url(#paint104_radial_129_2056)"/>
<path d="M141 314H140L140 962H141L141 314Z" fill="url(#paint105_radial_129_2056)"/>
<path d="M541 314H540L540 962H541L541 314Z" fill="url(#paint106_radial_129_2056)"/>
<path d="M41 314H40L40 962H41L41 314Z" fill="url(#paint107_radial_129_2056)"/>
<path d="M441 314H440L440 962H441L441 314Z" fill="url(#paint108_radial_129_2056)"/>
<path d="M1056 337.036L24 337.036V338.037L1056 338.037V337.036Z" fill="url(#paint109_radial_129_2056)"/>
<path d="M1056 537.345L24 537.345V538.346L1056 538.346V537.345Z" fill="url(#paint110_radial_129_2056)"/>
<path d="M1056 737.654L24 737.654V738.655L1056 738.655V737.654Z" fill="url(#paint111_radial_129_2056)"/>
<path d="M1056 437.19L24 437.19V438.192L1056 438.192V437.19Z" fill="url(#paint112_radial_129_2056)"/>
<path d="M1056 637.499L24 637.499V638.501L1056 638.501V637.499Z" fill="url(#paint113_radial_129_2056)"/>
<path d="M1056 837.808L24 837.808V838.81L1056 838.81V837.808Z" fill="url(#paint114_radial_129_2056)"/>
<path d="M1056 387.113L24 387.113V388.114L1056 388.114V387.113Z" fill="url(#paint115_radial_129_2056)"/>
<path d="M1056 587.422L24 587.422V588.423L1056 588.423V587.422Z" fill="url(#paint116_radial_129_2056)"/>
<path d="M1056 787.731L24 787.731V788.733L1056 788.733V787.731Z" fill="url(#paint117_radial_129_2056)"/>
<path d="M1056 487.267L24 487.267V488.269L1056 488.269V487.267Z" fill="url(#paint118_radial_129_2056)"/>
<path d="M1056 687.576L24 687.576V688.578L1056 688.578V687.576Z" fill="url(#paint119_radial_129_2056)"/>
<path d="M1056 887.886L24 887.886V888.887L1056 888.887V887.886Z" fill="url(#paint120_radial_129_2056)"/>
<path d="M1056 362.074L24 362.074V363.076L1056 363.076V362.074Z" fill="url(#paint121_radial_129_2056)"/>
<path d="M1056 562.383L24 562.383V563.385L1056 563.385V562.383Z" fill="url(#paint122_radial_129_2056)"/>
<path d="M1056 762.692L24 762.692V763.694L1056 763.694V762.692Z" fill="url(#paint123_radial_129_2056)"/>
<path d="M1056 462.229L24 462.229V463.23L1056 463.23V462.229Z" fill="url(#paint124_radial_129_2056)"/>
<path d="M1056 662.538L24 662.538V663.539L1056 663.539V662.538Z" fill="url(#paint125_radial_129_2056)"/>
<path d="M1056 862.847L24 862.847V863.849L1056 863.849V862.847Z" fill="url(#paint126_radial_129_2056)"/>
<path d="M1056 412.151L24 412.151V413.153L1056 413.153V412.151Z" fill="url(#paint127_radial_129_2056)"/>
<path d="M1056 612.461L24 612.461V613.462L1056 613.462V612.461Z" fill="url(#paint128_radial_129_2056)"/>
<path d="M1056 812.77L24 812.77V813.771L1056 813.771V812.77Z" fill="url(#paint129_radial_129_2056)"/>
<path d="M1056 512.306L24 512.306V513.308L1056 513.308V512.306Z" fill="url(#paint130_radial_129_2056)"/>
<path d="M1056 712.615L24 712.615V713.617L1056 713.617V712.615Z" fill="url(#paint131_radial_129_2056)"/>
<path d="M1056 912.924L24 912.924V913.926L1056 913.926V912.924Z" fill="url(#paint132_radial_129_2056)"/>
<path d="M1056 937.963L24 937.963V938.964L1056 938.964V937.963Z" fill="url(#paint133_radial_129_2056)"/>
</g>
<defs>
<radialGradient id="paint0_radial_129_2056" cx="0" cy="0" r="1" gradientUnits="userSpaceOnUse" gradientTransform="translate(540 1376.5) rotate(-90) scale(880.5 540)">
<stop stop-color="#2962FF"/>
<stop offset="1" stop-color="#2962FF" stop-opacity="0"/>
</radialGradient>
<radialGradient id="paint1_radial_129_2056" cx="0" cy="0" r="1" gradientUnits="userSpaceOnUse" gradientTransform="translate(540 634) rotate(90) scale(406 406)">
<stop stop-color="#2962FF" stop-opacity="0"/>
<stop offset="0.513053" stop-color="#2962FF" stop-opacity="0.782292"/>
<stop offset="1" stop-color="#2962FF" stop-opacity="0"/>
</radialGradient>
<radialGradient id="paint2_radial_129_2056" cx="0" cy="0" r="1" gradientUnits="userSpaceOnUse" gradientTransform="translate(536 1396) rotate(90) scale(324 516)">
<stop stop-color="#2962FF"/>
<stop offset="1" stop-color="#2962FF" stop-opacity="0"/>
</radialGradient>
<radialGradient id="paint3_radial_129_2056" cx="0" cy="0" r="1" gradientUnits="userSpaceOnUse" gradientTransform="translate(536 1396) rotate(90) scale(324 516)">
<stop stop-color="#2962FF"/>
<stop offset="1" stop-color="#2962FF" stop-opacity="0"/>
</radialGradient>
<radialGradient id="paint4_radial_129_2056" cx="0" cy="0" r="1" gradientUnits="userSpaceOnUse" gradientTransform="translate(536 1396) rotate(90) scale(324 516)">
<stop stop-color="#2962FF"/>
<stop offset="1" stop-color="#2962FF" stop-opacity="0"/>
</radialGradient>
<radialGradient id="paint5_radial_129_2056" cx="0" cy="0" r="1" gradientUnits="userSpaceOnUse" gradientTransform="translate(536 1396) rotate(90) scale(324 516)">
<stop stop-color="#2962FF"/>
<stop offset="1" stop-color="#2962FF" stop-opacity="0"/>
</radialGradient>
<radialGradient id="paint6_radial_129_2056" cx="0" cy="0" r="1" gradientUnits="userSpaceOnUse" gradientTransform="translate(536 1396) rotate(90) scale(324 516)">
<stop stop-color="#2962FF"/>
<stop offset="1" stop-color="#2962FF" stop-opacity="0"/>
</radialGradient>
<radialGradient id="paint7_radial_129_2056" cx="0" cy="0" r="1" gradientUnits="userSpaceOnUse" gradientTransform="translate(536 1396) rotate(90) scale(324 516)">
<stop stop-color="#2962FF"/>
<stop offset="1" stop-color="#2962FF" stop-opacity="0"/>
</radialGradient>
<radialGradient id="paint8_radial_129_2056" cx="0" cy="0" r="1" gradientUnits="userSpaceOnUse" gradientTransform="translate(536 1396) rotate(90) scale(324 516)">
<stop stop-color="#2962FF"/>
<stop offset="1" stop-color="#2962FF" stop-opacity="0"/>
</radialGradient>
<radialGradient id="paint9_radial_129_2056" cx="0" cy="0" r="1" gradientUnits="userSpaceOnUse" gradientTransform="translate(536 1396) rotate(90) scale(324 516)">
<stop stop-color="#2962FF"/>
<stop offset="1" stop-color="#2962FF" stop-opacity="0"/>
</radialGradient>
<radialGradient id="paint10_radial_129_2056" cx="0" cy="0" r="1" gradientUnits="userSpaceOnUse" gradientTransform="translate(536 1396) rotate(90) scale(324 516)">
<stop stop-color="#2962FF"/>
<stop offset="1" stop-color="#2962FF" stop-opacity="0"/>
</radialGradient>
<radialGradient id="paint11_radial_129_2056" cx="0" cy="0" r="1" gradientUnits="userSpaceOnUse" gradientTransform="translate(536 1396) rotate(90) scale(324 516)">
<stop stop-color="#2962FF"/>
<stop offset="1" stop-color="#2962FF" stop-opacity="0"/>
</radialGradient>
<radialGradient id="paint12_radial_129_2056" cx="0" cy="0" r="1" gradientUnits="userSpaceOnUse" gradientTransform="translate(536 1396) rotate(90) scale(324 516)">
<stop stop-color="#2962FF"/>
<stop offset="1" stop-color="#2962FF" stop-opacity="0"/>
</radialGradient>
<radialGradient id="paint13_radial_129_2056" cx="0" cy="0" r="1" gradientUnits="userSpaceOnUse" gradientTransform="translate(536 1396) rotate(90) scale(324 516)">
<stop stop-color="#2962FF"/>
<stop offset="1" stop-color="#2962FF" stop-opacity="0"/>
</radialGradient>
<radialGradient id="paint14_radial_129_2056" cx="0" cy="0" r="1" gradientUnits="userSpaceOnUse" gradientTransform="translate(536 1396) rotate(90) scale(324 516)">
<stop stop-color="#2962FF"/>
<stop offset="1" stop-color="#2962FF" stop-opacity="0"/>
</radialGradient>
<radialGradient id="paint15_radial_129_2056" cx="0" cy="0" r="1" gradientUnits="userSpaceOnUse" gradientTransform="translate(536 1396) rotate(90) scale(324 516)">
<stop stop-color="#2962FF"/>
<stop offset="1" stop-color="#2962FF" stop-opacity="0"/>
</radialGradient>
<radialGradient id="paint16_radial_129_2056" cx="0" cy="0" r="1" gradientUnits="userSpaceOnUse" gradientTransform="translate(536 1396) rotate(90) scale(324 516)">
<stop stop-color="#2962FF"/>
<stop offset="1" stop-color="#2962FF" stop-opacity="0"/>
</radialGradient>
<radialGradient id="paint17_radial_129_2056" cx="0" cy="0" r="1" gradientUnits="userSpaceOnUse" gradientTransform="translate(536 1396) rotate(90) scale(324 516)">
<stop stop-color="#2962FF"/>
<stop offset="1" stop-color="#2962FF" stop-opacity="0"/>
</radialGradient>
<radialGradient id="paint18_radial_129_2056" cx="0" cy="0" r="1" gradientUnits="userSpaceOnUse" gradientTransform="translate(536 1396) rotate(90) scale(324 516)">
<stop stop-color="#2962FF"/>
<stop offset="1" stop-color="#2962FF" stop-opacity="0"/>
</radialGradient>
<radialGradient id="paint19_radial_129_2056" cx="0" cy="0" r="1" gradientUnits="userSpaceOnUse" gradientTransform="translate(536 1396) rotate(90) scale(324 516)">
<stop stop-color="#2962FF"/>
<stop offset="1" stop-color="#2962FF" stop-opacity="0"/>
</radialGradient>
<radialGradient id="paint20_radial_129_2056" cx="0" cy="0" r="1" gradientUnits="userSpaceOnUse" gradientTransform="translate(536 1396) rotate(90) scale(324 516)">
<stop stop-color="#2962FF"/>
<stop offset="1" stop-color="#2962FF" stop-opacity="0"/>
</radialGradient>
<radialGradient id="paint21_radial_129_2056" cx="0" cy="0" r="1" gradientUnits="userSpaceOnUse" gradientTransform="translate(536 1396) rotate(90) scale(324 516)">
<stop stop-color="#2962FF"/>
<stop offset="1" stop-color="#2962FF" stop-opacity="0"/>
</radialGradient>
<radialGradient id="paint22_radial_129_2056" cx="0" cy="0" r="1" gradientUnits="userSpaceOnUse" gradientTransform="translate(536 1396) rotate(90) scale(324 516)">
<stop stop-color="#2962FF"/>
<stop offset="1" stop-color="#2962FF" stop-opacity="0"/>
</radialGradient>
<radialGradient id="paint23_radial_129_2056" cx="0" cy="0" r="1" gradientUnits="userSpaceOnUse" gradientTransform="translate(536 1396) rotate(90) scale(324 516)">
<stop stop-color="#2962FF"/>
<stop offset="1" stop-color="#2962FF" stop-opacity="0"/>
</radialGradient>
<radialGradient id="paint24_radial_129_2056" cx="0" cy="0" r="1" gradientUnits="userSpaceOnUse" gradientTransform="translate(536 1396) rotate(90) scale(324 516)">
<stop stop-color="#2962FF"/>
<stop offset="1" stop-color="#2962FF" stop-opacity="0"/>
</radialGradient>
<radialGradient id="paint25_radial_129_2056" cx="0" cy="0" r="1" gradientUnits="userSpaceOnUse" gradientTransform="translate(536 1396) rotate(90) scale(324 516)">
<stop stop-color="#2962FF"/>
<stop offset="1" stop-color="#2962FF" stop-opacity="0"/>
</radialGradient>
<radialGradient id="paint26_radial_129_2056" cx="0" cy="0" r="1" gradientUnits="userSpaceOnUse" gradientTransform="translate(536 1396) rotate(90) scale(324 516)">
<stop stop-color="#2962FF"/>
<stop offset="1" stop-color="#2962FF" stop-opacity="0"/>
</radialGradient>
<radialGradient id="paint27_radial_129_2056" cx="0" cy="0" r="1" gradientUnits="userSpaceOnUse" gradientTransform="translate(536 1396) rotate(90) scale(324 516)">
<stop stop-color="#2962FF"/>
<stop offset="1" stop-color="#2962FF" stop-opacity="0"/>
</radialGradient>
<radialGradient id="paint28_radial_129_2056" cx="0" cy="0" r="1" gradientUnits="userSpaceOnUse" gradientTransform="translate(536 1396) rotate(90) scale(324 516)">
<stop stop-color="#2962FF"/>
<stop offset="1" stop-color="#2962FF" stop-opacity="0"/>
</radialGradient>
<radialGradient id="paint29_radial_129_2056" cx="0" cy="0" r="1" gradientUnits="userSpaceOnUse" gradientTransform="translate(536 1396) rotate(90) scale(324 516)">
<stop stop-color="#2962FF"/>
<stop offset="1" stop-color="#2962FF" stop-opacity="0"/>
</radialGradient>
<radialGradient id="paint30_radial_129_2056" cx="0" cy="0" r="1" gradientUnits="userSpaceOnUse" gradientTransform="translate(536 1396) rotate(90) scale(324 516)">
<stop stop-color="#2962FF"/>
<stop offset="1" stop-color="#2962FF" stop-opacity="0"/>
</radialGradient>
<radialGradient id="paint31_radial_129_2056" cx="0" cy="0" r="1" gradientUnits="userSpaceOnUse" gradientTransform="translate(536 1396) rotate(90) scale(324 516)">
<stop stop-color="#2962FF"/>
<stop offset="1" stop-color="#2962FF" stop-opacity="0"/>
</radialGradient>
<radialGradient id="paint32_radial_129_2056" cx="0" cy="0" r="1" gradientUnits="userSpaceOnUse" gradientTransform="translate(536 1396) rotate(90) scale(324 516)">
<stop stop-color="#2962FF"/>
<stop offset="1" stop-color="#2962FF" stop-opacity="0"/>
</radialGradient>
<radialGradient id="paint33_radial_129_2056" cx="0" cy="0" r="1" gradientUnits="userSpaceOnUse" gradientTransform="translate(536 1396) rotate(90) scale(324 516)">
<stop stop-color="#2962FF"/>
<stop offset="1" stop-color="#2962FF" stop-opacity="0"/>
</radialGradient>
<radialGradient id="paint34_radial_129_2056" cx="0" cy="0" r="1" gradientUnits="userSpaceOnUse" gradientTransform="translate(536 1396) rotate(90) scale(324 516)">
<stop stop-color="#2962FF"/>
<stop offset="1" stop-color="#2962FF" stop-opacity="0"/>
</radialGradient>
<radialGradient id="paint35_radial_129_2056" cx="0" cy="0" r="1" gradientUnits="userSpaceOnUse" gradientTransform="translate(536 1396) rotate(90) scale(324 516)">
<stop stop-color="#2962FF"/>
<stop offset="1" stop-color="#2962FF" stop-opacity="0"/>
</radialGradient>
<radialGradient id="paint36_radial_129_2056" cx="0" cy="0" r="1" gradientUnits="userSpaceOnUse" gradientTransform="translate(536 1396) rotate(90) scale(324 516)">
<stop stop-color="#2962FF"/>
<stop offset="1" stop-color="#2962FF" stop-opacity="0"/>
</radialGradient>
<radialGradient id="paint37_radial_129_2056" cx="0" cy="0" r="1" gradientUnits="userSpaceOnUse" gradientTransform="translate(536 1396) rotate(90) scale(324 516)">
<stop stop-color="#2962FF"/>
<stop offset="1" stop-color="#2962FF" stop-opacity="0"/>
</radialGradient>
<radialGradient id="paint38_radial_129_2056" cx="0" cy="0" r="1" gradientUnits="userSpaceOnUse" gradientTransform="translate(536 1396) rotate(90) scale(324 516)">
<stop stop-color="#2962FF"/>
<stop offset="1" stop-color="#2962FF" stop-opacity="0"/>
</radialGradient>
<radialGradient id="paint39_radial_129_2056" cx="0" cy="0" r="1" gradientUnits="userSpaceOnUse" gradientTransform="translate(536 1396) rotate(90) scale(324 516)">
<stop stop-color="#2962FF"/>
<stop offset="1" stop-color="#2962FF" stop-opacity="0"/>
</radialGradient>
<radialGradient id="paint40_radial_129_2056" cx="0" cy="0" r="1" gradientUnits="userSpaceOnUse" gradientTransform="translate(536 1396) rotate(90) scale(324 516)">
<stop stop-color="#2962FF"/>
<stop offset="1" stop-color="#2962FF" stop-opacity="0"/>
</radialGradient>
<radialGradient id="paint41_radial_129_2056" cx="0" cy="0" r="1" gradientUnits="userSpaceOnUse" gradientTransform="translate(536 1396) rotate(90) scale(324 516)">
<stop stop-color="#2962FF"/>
<stop offset="1" stop-color="#2962FF" stop-opacity="0"/>
</radialGradient>
<radialGradient id="paint42_radial_129_2056" cx="0" cy="0" r="1" gradientUnits="userSpaceOnUse" gradientTransform="translate(536 1396) rotate(90) scale(324 516)">
<stop stop-color="#2962FF"/>
<stop offset="1" stop-color="#2962FF" stop-opacity="0"/>
</radialGradient>
<radialGradient id="paint43_radial_129_2056" cx="0" cy="0" r="1" gradientUnits="userSpaceOnUse" gradientTransform="translate(536 1396) rotate(90) scale(324 516)">
<stop stop-color="#2962FF"/>
<stop offset="1" stop-color="#2962FF" stop-opacity="0"/>
</radialGradient>
<radialGradient id="paint44_radial_129_2056" cx="0" cy="0" r="1" gradientUnits="userSpaceOnUse" gradientTransform="translate(536 1396) rotate(90) scale(324 516)">
<stop stop-color="#2962FF"/>
<stop offset="1" stop-color="#2962FF" stop-opacity="0"/>
</radialGradient>
<radialGradient id="paint45_radial_129_2056" cx="0" cy="0" r="1" gradientUnits="userSpaceOnUse" gradientTransform="translate(536 1396) rotate(90) scale(324 516)">
<stop stop-color="#2962FF"/>
<stop offset="1" stop-color="#2962FF" stop-opacity="0"/>
</radialGradient>
<radialGradient id="paint46_radial_129_2056" cx="0" cy="0" r="1" gradientUnits="userSpaceOnUse" gradientTransform="translate(536 1396) rotate(90) scale(324 516)">
<stop stop-color="#2962FF"/>
<stop offset="1" stop-color="#2962FF" stop-opacity="0"/>
</radialGradient>
<radialGradient id="paint47_radial_129_2056" cx="0" cy="0" r="1" gradientUnits="userSpaceOnUse" gradientTransform="translate(536 1396) rotate(90) scale(324 516)">
<stop stop-color="#2962FF"/>
<stop offset="1" stop-color="#2962FF" stop-opacity="0"/>
</radialGradient>
<radialGradient id="paint48_radial_129_2056" cx="0" cy="0" r="1" gradientUnits="userSpaceOnUse" gradientTransform="translate(536 1396) rotate(90) scale(324 516)">
<stop stop-color="#2962FF"/>
<stop offset="1" stop-color="#2962FF" stop-opacity="0"/>
</radialGradient>
<radialGradient id="paint49_radial_129_2056" cx="0" cy="0" r="1" gradientUnits="userSpaceOnUse" gradientTransform="translate(536 1396) rotate(90) scale(324 516)">
<stop stop-color="#2962FF"/>
<stop offset="1" stop-color="#2962FF" stop-opacity="0"/>
</radialGradient>
<radialGradient id="paint50_radial_129_2056" cx="0" cy="0" r="1" gradientUnits="userSpaceOnUse" gradientTransform="translate(536 1396) rotate(90) scale(324 516)">
<stop stop-color="#2962FF"/>
<stop offset="1" stop-color="#2962FF" stop-opacity="0"/>
</radialGradient>
<radialGradient id="paint51_radial_129_2056" cx="0" cy="0" r="1" gradientUnits="userSpaceOnUse" gradientTransform="translate(536 1396) rotate(90) scale(324 516)">
<stop stop-color="#2962FF"/>
<stop offset="1" stop-color="#2962FF" stop-opacity="0"/>
</radialGradient>
<radialGradient id="paint52_radial_129_2056" cx="0" cy="0" r="1" gradientUnits="userSpaceOnUse" gradientTransform="translate(536 1396) rotate(90) scale(324 516)">
<stop stop-color="#2962FF"/>
<stop offset="1" stop-color="#2962FF" stop-opacity="0"/>
</radialGradient>
<radialGradient id="paint53_radial_129_2056" cx="0" cy="0" r="1" gradientUnits="userSpaceOnUse" gradientTransform="translate(536 1396) rotate(90) scale(324 516)">
<stop stop-color="#2962FF"/>
<stop offset="1" stop-color="#2962FF" stop-opacity="0"/>
</radialGradient>
<radialGradient id="paint54_radial_129_2056" cx="0" cy="0" r="1" gradientUnits="userSpaceOnUse" gradientTransform="translate(536 1396) rotate(90) scale(324 516)">
<stop stop-color="#2962FF"/>
<stop offset="1" stop-color="#2962FF" stop-opacity="0"/>
</radialGradient>
<radialGradient id="paint55_radial_129_2056" cx="0" cy="0" r="1" gradientUnits="userSpaceOnUse" gradientTransform="translate(536 1396) rotate(90) scale(324 516)">
<stop stop-color="#2962FF"/>
<stop offset="1" stop-color="#2962FF" stop-opacity="0"/>
</radialGradient>
<radialGradient id="paint56_radial_129_2056" cx="0" cy="0" r="1" gradientUnits="userSpaceOnUse" gradientTransform="translate(536 1396) rotate(90) scale(324 516)">
<stop stop-color="#2962FF"/>
<stop offset="1" stop-color="#2962FF" stop-opacity="0"/>
</radialGradient>
<radialGradient id="paint57_radial_129_2056" cx="0" cy="0" r="1" gradientUnits="userSpaceOnUse" gradientTransform="translate(536 1396) rotate(90) scale(324 516)">
<stop stop-color="#2962FF"/>
<stop offset="1" stop-color="#2962FF" stop-opacity="0"/>
</radialGradient>
<radialGradient id="paint58_radial_129_2056" cx="0" cy="0" r="1" gradientUnits="userSpaceOnUse" gradientTransform="translate(536 1396) rotate(90) scale(324 516)">
<stop stop-color="#2962FF"/>
<stop offset="1" stop-color="#2962FF" stop-opacity="0"/>
</radialGradient>
<radialGradient id="paint59_radial_129_2056" cx="0" cy="0" r="1" gradientUnits="userSpaceOnUse" gradientTransform="translate(536 1396) rotate(90) scale(324 516)">
<stop stop-color="#2962FF"/>
<stop offset="1" stop-color="#2962FF" stop-opacity="0"/>
</radialGradient>
<radialGradient id="paint60_radial_129_2056" cx="0" cy="0" r="1" gradientUnits="userSpaceOnUse" gradientTransform="translate(536 1396) rotate(90) scale(324 516)">
<stop stop-color="#2962FF"/>
<stop offset="1" stop-color="#2962FF" stop-opacity="0"/>
</radialGradient>
<radialGradient id="paint61_radial_129_2056" cx="0" cy="0" r="1" gradientUnits="userSpaceOnUse" gradientTransform="translate(536 1396) rotate(90) scale(324 516)">
<stop stop-color="#2962FF"/>
<stop offset="1" stop-color="#2962FF" stop-opacity="0"/>
</radialGradient>
<radialGradient id="paint62_radial_129_2056" cx="0" cy="0" r="1" gradientUnits="userSpaceOnUse" gradientTransform="translate(536 1396) rotate(90) scale(324 516)">
<stop stop-color="#2962FF"/>
<stop offset="1" stop-color="#2962FF" stop-opacity="0"/>
</radialGradient>
<radialGradient id="paint63_radial_129_2056" cx="0" cy="0" r="1" gradientUnits="userSpaceOnUse" gradientTransform="translate(536 1396) rotate(90) scale(324 516)">
<stop stop-color="#2962FF"/>
<stop offset="1" stop-color="#2962FF" stop-opacity="0"/>
</radialGradient>
<radialGradient id="paint64_radial_129_2056" cx="0" cy="0" r="1" gradientUnits="userSpaceOnUse" gradientTransform="translate(536 1396) rotate(90) scale(324 516)">
<stop stop-color="#2962FF"/>
<stop offset="1" stop-color="#2962FF" stop-opacity="0"/>
</radialGradient>
<radialGradient id="paint65_radial_129_2056" cx="0" cy="0" r="1" gradientUnits="userSpaceOnUse" gradientTransform="translate(536 1396) rotate(90) scale(324 516)">
<stop stop-color="#2962FF"/>
<stop offset="1" stop-color="#2962FF" stop-opacity="0"/>
</radialGradient>
<radialGradient id="paint66_radial_129_2056" cx="0" cy="0" r="1" gradientUnits="userSpaceOnUse" gradientTransform="translate(536 1396) rotate(90) scale(324 516)">
<stop stop-color="#2962FF"/>
<stop offset="1" stop-color="#2962FF" stop-opacity="0"/>
</radialGradient>
<radialGradient id="paint67_radial_129_2056" cx="0" cy="0" r="1" gradientUnits="userSpaceOnUse" gradientTransform="translate(536 1396) rotate(90) scale(324 516)">
<stop stop-color="#2962FF"/>
<stop offset="1" stop-color="#2962FF" stop-opacity="0"/>
</radialGradient>
<radialGradient id="paint68_radial_129_2056" cx="0" cy="0" r="1" gradientUnits="userSpaceOnUse" gradientTransform="translate(540 638) rotate(90) scale(324 516)">
<stop stop-color="#2962FF"/>
<stop offset="1" stop-color="#2962FF" stop-opacity="0"/>
</radialGradient>
<radialGradient id="paint69_radial_129_2056" cx="0" cy="0" r="1" gradientUnits="userSpaceOnUse" gradientTransform="translate(540 638) rotate(90) scale(324 516)">
<stop stop-color="#2962FF"/>
<stop offset="1" stop-color="#2962FF" stop-opacity="0"/>
</radialGradient>
<radialGradient id="paint70_radial_129_2056" cx="0" cy="0" r="1" gradientUnits="userSpaceOnUse" gradientTransform="translate(540 638) rotate(90) scale(324 516)">
<stop stop-color="#2962FF"/>
<stop offset="1" stop-color="#2962FF" stop-opacity="0"/>
</radialGradient>
<radialGradient id="paint71_radial_129_2056" cx="0" cy="0" r="1" gradientUnits="userSpaceOnUse" gradientTransform="translate(540 638) rotate(90) scale(324 516)">
<stop stop-color="#2962FF"/>
<stop offset="1" stop-color="#2962FF" stop-opacity="0"/>
</radialGradient>
<radialGradient id="paint72_radial_129_2056" cx="0" cy="0" r="1" gradientUnits="userSpaceOnUse" gradientTransform="translate(540 638) rotate(90) scale(324 516)">
<stop stop-color="#2962FF"/>
<stop offset="1" stop-color="#2962FF" stop-opacity="0"/>
</radialGradient>
<radialGradient id="paint73_radial_129_2056" cx="0" cy="0" r="1" gradientUnits="userSpaceOnUse" gradientTransform="translate(540 638) rotate(90) scale(324 516)">
<stop stop-color="#2962FF"/>
<stop offset="1" stop-color="#2962FF" stop-opacity="0"/>
</radialGradient>
<radialGradient id="paint74_radial_129_2056" cx="0" cy="0" r="1" gradientUnits="userSpaceOnUse" gradientTransform="translate(540 638) rotate(90) scale(324 516)">
<stop stop-color="#2962FF"/>
<stop offset="1" stop-color="#2962FF" stop-opacity="0"/>
</radialGradient>
<radialGradient id="paint75_radial_129_2056" cx="0" cy="0" r="1" gradientUnits="userSpaceOnUse" gradientTransform="translate(540 638) rotate(90) scale(324 516)">
<stop stop-color="#2962FF"/>
<stop offset="1" stop-color="#2962FF" stop-opacity="0"/>
</radialGradient>
<radialGradient id="paint76_radial_129_2056" cx="0" cy="0" r="1" gradientUnits="userSpaceOnUse" gradientTransform="translate(540 638) rotate(90) scale(324 516)">
<stop stop-color="#2962FF"/>
<stop offset="1" stop-color="#2962FF" stop-opacity="0"/>
</radialGradient>
<radialGradient id="paint77_radial_129_2056" cx="0" cy="0" r="1" gradientUnits="userSpaceOnUse" gradientTransform="translate(540 638) rotate(90) scale(324 516)">
<stop stop-color="#2962FF"/>
<stop offset="1" stop-color="#2962FF" stop-opacity="0"/>
</radialGradient>
<radialGradient id="paint78_radial_129_2056" cx="0" cy="0" r="1" gradientUnits="userSpaceOnUse" gradientTransform="translate(540 638) rotate(90) scale(324 516)">
<stop stop-color="#2962FF"/>
<stop offset="1" stop-color="#2962FF" stop-opacity="0"/>
</radialGradient>
<radialGradient id="paint79_radial_129_2056" cx="0" cy="0" r="1" gradientUnits="userSpaceOnUse" gradientTransform="translate(540 638) rotate(90) scale(324 516)">
<stop stop-color="#2962FF"/>
<stop offset="1" stop-color="#2962FF" stop-opacity="0"/>
</radialGradient>
<radialGradient id="paint80_radial_129_2056" cx="0" cy="0" r="1" gradientUnits="userSpaceOnUse" gradientTransform="translate(540 638) rotate(90) scale(324 516)">
<stop stop-color="#2962FF"/>
<stop offset="1" stop-color="#2962FF" stop-opacity="0"/>
</radialGradient>
<radialGradient id="paint81_radial_129_2056" cx="0" cy="0" r="1" gradientUnits="userSpaceOnUse" gradientTransform="translate(540 638) rotate(90) scale(324 516)">
<stop stop-color="#2962FF"/>
<stop offset="1" stop-color="#2962FF" stop-opacity="0"/>
</radialGradient>
<radialGradient id="paint82_radial_129_2056" cx="0" cy="0" r="1" gradientUnits="userSpaceOnUse" gradientTransform="translate(540 638) rotate(90) scale(324 516)">
<stop stop-color="#2962FF"/>
<stop offset="1" stop-color="#2962FF" stop-opacity="0"/>
</radialGradient>
<radialGradient id="paint83_radial_129_2056" cx="0" cy="0" r="1" gradientUnits="userSpaceOnUse" gradientTransform="translate(540 638) rotate(90) scale(324 516)">
<stop stop-color="#2962FF"/>
<stop offset="1" stop-color="#2962FF" stop-opacity="0"/>
</radialGradient>
<radialGradient id="paint84_radial_129_2056" cx="0" cy="0" r="1" gradientUnits="userSpaceOnUse" gradientTransform="translate(540 638) rotate(90) scale(324 516)">
<stop stop-color="#2962FF"/>
<stop offset="1" stop-color="#2962FF" stop-opacity="0"/>
</radialGradient>
<radialGradient id="paint85_radial_129_2056" cx="0" cy="0" r="1" gradientUnits="userSpaceOnUse" gradientTransform="translate(540 638) rotate(90) scale(324 516)">
<stop stop-color="#2962FF"/>
<stop offset="1" stop-color="#2962FF" stop-opacity="0"/>
</radialGradient>
<radialGradient id="paint86_radial_129_2056" cx="0" cy="0" r="1" gradientUnits="userSpaceOnUse" gradientTransform="translate(540 638) rotate(90) scale(324 516)">
<stop stop-color="#2962FF"/>
<stop offset="1" stop-color="#2962FF" stop-opacity="0"/>
</radialGradient>
<radialGradient id="paint87_radial_129_2056" cx="0" cy="0" r="1" gradientUnits="userSpaceOnUse" gradientTransform="translate(540 638) rotate(90) scale(324 516)">
<stop stop-color="#2962FF"/>
<stop offset="1" stop-color="#2962FF" stop-opacity="0"/>
</radialGradient>
<radialGradient id="paint88_radial_129_2056" cx="0" cy="0" r="1" gradientUnits="userSpaceOnUse" gradientTransform="translate(540 638) rotate(90) scale(324 516)">
<stop stop-color="#2962FF"/>
<stop offset="1" stop-color="#2962FF" stop-opacity="0"/>
</radialGradient>
<radialGradient id="paint89_radial_129_2056" cx="0" cy="0" r="1" gradientUnits="userSpaceOnUse" gradientTransform="translate(540 638) rotate(90) scale(324 516)">
<stop stop-color="#2962FF"/>
<stop offset="1" stop-color="#2962FF" stop-opacity="0"/>
</radialGradient>
<radialGradient id="paint90_radial_129_2056" cx="0" cy="0" r="1" gradientUnits="userSpaceOnUse" gradientTransform="translate(540 638) rotate(90) scale(324 516)">
<stop stop-color="#2962FF"/>
<stop offset="1" stop-color="#2962FF" stop-opacity="0"/>
</radialGradient>
<radialGradient id="paint91_radial_129_2056" cx="0" cy="0" r="1" gradientUnits="userSpaceOnUse" gradientTransform="translate(540 638) rotate(90) scale(324 516)">
<stop stop-color="#2962FF"/>
<stop offset="1" stop-color="#2962FF" stop-opacity="0"/>
</radialGradient>
<radialGradient id="paint92_radial_129_2056" cx="0" cy="0" r="1" gradientUnits="userSpaceOnUse" gradientTransform="translate(540 638) rotate(90) scale(324 516)">
<stop stop-color="#2962FF"/>
<stop offset="1" stop-color="#2962FF" stop-opacity="0"/>
</radialGradient>
<radialGradient id="paint93_radial_129_2056" cx="0" cy="0" r="1" gradientUnits="userSpaceOnUse" gradientTransform="translate(540 638) rotate(90) scale(324 516)">
<stop stop-color="#2962FF"/>
<stop offset="1" stop-color="#2962FF" stop-opacity="0"/>
</radialGradient>
<radialGradient id="paint94_radial_129_2056" cx="0" cy="0" r="1" gradientUnits="userSpaceOnUse" gradientTransform="translate(540 638) rotate(90) scale(324 516)">
<stop stop-color="#2962FF"/>
<stop offset="1" stop-color="#2962FF" stop-opacity="0"/>
</radialGradient>
<radialGradient id="paint95_radial_129_2056" cx="0" cy="0" r="1" gradientUnits="userSpaceOnUse" gradientTransform="translate(540 638) rotate(90) scale(324 516)">
<stop stop-color="#2962FF"/>
<stop offset="1" stop-color="#2962FF" stop-opacity="0"/>
</radialGradient>
<radialGradient id="paint96_radial_129_2056" cx="0" cy="0" r="1" gradientUnits="userSpaceOnUse" gradientTransform="translate(540 638) rotate(90) scale(324 516)">
<stop stop-color="#2962FF"/>
<stop offset="1" stop-color="#2962FF" stop-opacity="0"/>
</radialGradient>
<radialGradient id="paint97_radial_129_2056" cx="0" cy="0" r="1" gradientUnits="userSpaceOnUse" gradientTransform="translate(540 638) rotate(90) scale(324 516)">
<stop stop-color="#2962FF"/>
<stop offset="1" stop-color="#2962FF" stop-opacity="0"/>
</radialGradient>
<radialGradient id="paint98_radial_129_2056" cx="0" cy="0" r="1" gradientUnits="userSpaceOnUse" gradientTransform="translate(540 638) rotate(90) scale(324 516)">
<stop stop-color="#2962FF"/>
<stop offset="1" stop-color="#2962FF" stop-opacity="0"/>
</radialGradient>
<radialGradient id="paint99_radial_129_2056" cx="0" cy="0" r="1" gradientUnits="userSpaceOnUse" gradientTransform="translate(540 638) rotate(90) scale(324 516)">
<stop stop-color="#2962FF"/>
<stop offset="1" stop-color="#2962FF" stop-opacity="0"/>
</radialGradient>
<radialGradient id="paint100_radial_129_2056" cx="0" cy="0" r="1" gradientUnits="userSpaceOnUse" gradientTransform="translate(540 638) rotate(90) scale(324 516)">
<stop stop-color="#2962FF"/>
<stop offset="1" stop-color="#2962FF" stop-opacity="0"/>
</radialGradient>
<radialGradient id="paint101_radial_129_2056" cx="0" cy="0" r="1" gradientUnits="userSpaceOnUse" gradientTransform="translate(540 638) rotate(90) scale(324 516)">
<stop stop-color="#2962FF"/>
<stop offset="1" stop-color="#2962FF" stop-opacity="0"/>
</radialGradient>
<radialGradient id="paint102_radial_129_2056" cx="0" cy="0" r="1" gradientUnits="userSpaceOnUse" gradientTransform="translate(540 638) rotate(90) scale(324 516)">
<stop stop-color="#2962FF"/>
<stop offset="1" stop-color="#2962FF" stop-opacity="0"/>
</radialGradient>
<radialGradient id="paint103_radial_129_2056" cx="0" cy="0" r="1" gradientUnits="userSpaceOnUse" gradientTransform="translate(540 638) rotate(90) scale(324 516)">
<stop stop-color="#2962FF"/>
<stop offset="1" stop-color="#2962FF" stop-opacity="0"/>
</radialGradient>
<radialGradient id="paint104_radial_129_2056" cx="0" cy="0" r="1" gradientUnits="userSpaceOnUse" gradientTransform="translate(540 638) rotate(90) scale(324 516)">
<stop stop-color="#2962FF"/>
<stop offset="1" stop-color="#2962FF" stop-opacity="0"/>
</radialGradient>
<radialGradient id="paint105_radial_129_2056" cx="0" cy="0" r="1" gradientUnits="userSpaceOnUse" gradientTransform="translate(540 638) rotate(90) scale(324 516)">
<stop stop-color="#2962FF"/>
<stop offset="1" stop-color="#2962FF" stop-opacity="0"/>
</radialGradient>
<radialGradient id="paint106_radial_129_2056" cx="0" cy="0" r="1" gradientUnits="userSpaceOnUse" gradientTransform="translate(540 638) rotate(90) scale(324 516)">
<stop stop-color="#2962FF"/>
<stop offset="1" stop-color="#2962FF" stop-opacity="0"/>
</radialGradient>
<radialGradient id="paint107_radial_129_2056" cx="0" cy="0" r="1" gradientUnits="userSpaceOnUse" gradientTransform="translate(540 638) rotate(90) scale(324 516)">
<stop stop-color="#2962FF"/>
<stop offset="1" stop-color="#2962FF" stop-opacity="0"/>
</radialGradient>
<radialGradient id="paint108_radial_129_2056" cx="0" cy="0" r="1" gradientUnits="userSpaceOnUse" gradientTransform="translate(540 638) rotate(90) scale(324 516)">
<stop stop-color="#2962FF"/>
<stop offset="1" stop-color="#2962FF" stop-opacity="0"/>
</radialGradient>
<radialGradient id="paint109_radial_129_2056" cx="0" cy="0" r="1" gradientUnits="userSpaceOnUse" gradientTransform="translate(540 638) rotate(90) scale(324 516)">
<stop stop-color="#2962FF"/>
<stop offset="1" stop-color="#2962FF" stop-opacity="0"/>
</radialGradient>
<radialGradient id="paint110_radial_129_2056" cx="0" cy="0" r="1" gradientUnits="userSpaceOnUse" gradientTransform="translate(540 638) rotate(90) scale(324 516)">
<stop stop-color="#2962FF"/>
<stop offset="1" stop-color="#2962FF" stop-opacity="0"/>
</radialGradient>
<radialGradient id="paint111_radial_129_2056" cx="0" cy="0" r="1" gradientUnits="userSpaceOnUse" gradientTransform="translate(540 638) rotate(90) scale(324 516)">
<stop stop-color="#2962FF"/>
<stop offset="1" stop-color="#2962FF" stop-opacity="0"/>
</radialGradient>
<radialGradient id="paint112_radial_129_2056" cx="0" cy="0" r="1" gradientUnits="userSpaceOnUse" gradientTransform="translate(540 638) rotate(90) scale(324 516)">
<stop stop-color="#2962FF"/>
<stop offset="1" stop-color="#2962FF" stop-opacity="0"/>
</radialGradient>
<radialGradient id="paint113_radial_129_2056" cx="0" cy="0" r="1" gradientUnits="userSpaceOnUse" gradientTransform="translate(540 638) rotate(90) scale(324 516)">
<stop stop-color="#2962FF"/>
<stop offset="1" stop-color="#2962FF" stop-opacity="0"/>
</radialGradient>
<radialGradient id="paint114_radial_129_2056" cx="0" cy="0" r="1" gradientUnits="userSpaceOnUse" gradientTransform="translate(540 638) rotate(90) scale(324 516)">
<stop stop-color="#2962FF"/>
<stop offset="1" stop-color="#2962FF" stop-opacity="0"/>
</radialGradient>
<radialGradient id="paint115_radial_129_2056" cx="0" cy="0" r="1" gradientUnits="userSpaceOnUse" gradientTransform="translate(540 638) rotate(90) scale(324 516)">
<stop stop-color="#2962FF"/>
<stop offset="1" stop-color="#2962FF" stop-opacity="0"/>
</radialGradient>
<radialGradient id="paint116_radial_129_2056" cx="0" cy="0" r="1" gradientUnits="userSpaceOnUse" gradientTransform="translate(540 638) rotate(90) scale(324 516)">
<stop stop-color="#2962FF"/>
<stop offset="1" stop-color="#2962FF" stop-opacity="0"/>
</radialGradient>
<radialGradient id="paint117_radial_129_2056" cx="0" cy="0" r="1" gradientUnits="userSpaceOnUse" gradientTransform="translate(540 638) rotate(90) scale(324 516)">
<stop stop-color="#2962FF"/>
<stop offset="1" stop-color="#2962FF" stop-opacity="0"/>
</radialGradient>
<radialGradient id="paint118_radial_129_2056" cx="0" cy="0" r="1" gradientUnits="userSpaceOnUse" gradientTransform="translate(540 638) rotate(90) scale(324 516)">
<stop stop-color="#2962FF"/>
<stop offset="1" stop-color="#2962FF" stop-opacity="0"/>
</radialGradient>
<radialGradient id="paint119_radial_129_2056" cx="0" cy="0" r="1" gradientUnits="userSpaceOnUse" gradientTransform="translate(540 638) rotate(90) scale(324 516)">
<stop stop-color="#2962FF"/>
<stop offset="1" stop-color="#2962FF" stop-opacity="0"/>
</radialGradient>
<radialGradient id="paint120_radial_129_2056" cx="0" cy="0" r="1" gradientUnits="userSpaceOnUse" gradientTransform="translate(540 638) rotate(90) scale(324 516)">
<stop stop-color="#2962FF"/>
<stop offset="1" stop-color="#2962FF" stop-opacity="0"/>
</radialGradient>
<radialGradient id="paint121_radial_129_2056" cx="0" cy="0" r="1" gradientUnits="userSpaceOnUse" gradientTransform="translate(540 638) rotate(90) scale(324 516)">
<stop stop-color="#2962FF"/>
<stop offset="1" stop-color="#2962FF" stop-opacity="0"/>
</radialGradient>
<radialGradient id="paint122_radial_129_2056" cx="0" cy="0" r="1" gradientUnits="userSpaceOnUse" gradientTransform="translate(540 638) rotate(90) scale(324 516)">
<stop stop-color="#2962FF"/>
<stop offset="1" stop-color="#2962FF" stop-opacity="0"/>
</radialGradient>
<radialGradient id="paint123_radial_129_2056" cx="0" cy="0" r="1" gradientUnits="userSpaceOnUse" gradientTransform="translate(540 638) rotate(90) scale(324 516)">
<stop stop-color="#2962FF"/>
<stop offset="1" stop-color="#2962FF" stop-opacity="0"/>
</radialGradient>
<radialGradient id="paint124_radial_129_2056" cx="0" cy="0" r="1" gradientUnits="userSpaceOnUse" gradientTransform="translate(540 638) rotate(90) scale(324 516)">
<stop stop-color="#2962FF"/>
<stop offset="1" stop-color="#2962FF" stop-opacity="0"/>
</radialGradient>
<radialGradient id="paint125_radial_129_2056" cx="0" cy="0" r="1" gradientUnits="userSpaceOnUse" gradientTransform="translate(540 638) rotate(90) scale(324 516)">
<stop stop-color="#2962FF"/>
<stop offset="1" stop-color="#2962FF" stop-opacity="0"/>
</radialGradient>
<radialGradient id="paint126_radial_129_2056" cx="0" cy="0" r="1" gradientUnits="userSpaceOnUse" gradientTransform="translate(540 638) rotate(90) scale(324 516)">
<stop stop-color="#2962FF"/>
<stop offset="1" stop-color="#2962FF" stop-opacity="0"/>
</radialGradient>
<radialGradient id="paint127_radial_129_2056" cx="0" cy="0" r="1" gradientUnits="userSpaceOnUse" gradientTransform="translate(540 638) rotate(90) scale(324 516)">
<stop stop-color="#2962FF"/>
<stop offset="1" stop-color="#2962FF" stop-opacity="0"/>
</radialGradient>
<radialGradient id="paint128_radial_129_2056" cx="0" cy="0" r="1" gradientUnits="userSpaceOnUse" gradientTransform="translate(540 638) rotate(90) scale(324 516)">
<stop stop-color="#2962FF"/>
<stop offset="1" stop-color="#2962FF" stop-opacity="0"/>
</radialGradient>
<radialGradient id="paint129_radial_129_2056" cx="0" cy="0" r="1" gradientUnits="userSpaceOnUse" gradientTransform="translate(540 638) rotate(90) scale(324 516)">
<stop stop-color="#2962FF"/>
<stop offset="1" stop-color="#2962FF" stop-opacity="0"/>
</radialGradient>
<radialGradient id="paint130_radial_129_2056" cx="0" cy="0" r="1" gradientUnits="userSpaceOnUse" gradientTransform="translate(540 638) rotate(90) scale(324 516)">
<stop stop-color="#2962FF"/>
<stop offset="1" stop-color="#2962FF" stop-opacity="0"/>
</radialGradient>
<radialGradient id="paint131_radial_129_2056" cx="0" cy="0" r="1" gradientUnits="userSpaceOnUse" gradientTransform="translate(540 638) rotate(90) scale(324 516)">
<stop stop-color="#2962FF"/>
<stop offset="1" stop-color="#2962FF" stop-opacity="0"/>
</radialGradient>
<radialGradient id="paint132_radial_129_2056" cx="0" cy="0" r="1" gradientUnits="userSpaceOnUse" gradientTransform="translate(540 638) rotate(90) scale(324 516)">
<stop stop-color="#2962FF"/>
<stop offset="1" stop-color="#2962FF" stop-opacity="0"/>
</radialGradient>
<radialGradient id="paint133_radial_129_2056" cx="0" cy="0" r="1" gradientUnits="userSpaceOnUse" gradientTransform="translate(540 638) rotate(90) scale(324 516)">
<stop stop-color="#2962FF"/>
<stop offset="1" stop-color="#2962FF" stop-opacity="0"/>
</radialGradient>
</defs>
</svg>
